<?xml version="1.0" encoding="utf-8"?>
<!-- Generator: Adobe Illustrator 26.2.1, SVG Export Plug-In . SVG Version: 6.00 Build 0)  -->
<svg version="1.1" id="Layer_1" xmlns="http://www.w3.org/2000/svg" xmlns:xlink="http://www.w3.org/1999/xlink" x="0px" y="0px"
	 viewBox="0 0 1139.5 995.5" style="enable-background:new 0 0 1139.5 995.5;" xml:space="preserve">
<style type="text/css">
	.st0{fill:#FFFFFF;}
	.st1{fill:#FE5000;}
	.st2{fill:#28334A;}
	.st3{fill:#EA132B;}
	.st4{fill:#E70A31;}
	.st5{fill:#E60534;}
	.st6{fill:#ED1C25;}
	.st7{fill:#F0241F;}
	.st8{fill:#E9102D;}
	.st9{fill:#F22B1A;}
	.st10{fill:#E50336;}
	.st11{fill:#FC4905;}
	.st12{fill:#F43215;}
	.st13{fill:#E50237;}
	.st14{fill:#EB1629;}
	.st15{fill:#F63811;}
	.st16{fill:#FA4409;}
	.st17{fill:#F73B0F;}
	.st18{fill:#F9400B;}
	.st19{fill:#F83E0C;}
	.st20{fill:#FC4B03;}
	.st21{fill:#F22C19;}
	.st22{fill:#F0261E;}
	.st23{fill:#EC1926;}
	.st24{fill:#EE2022;}
	.st25{fill:#ED1C24;}
	.st26{fill:#FA4309;}
	.st27{fill:#FB4706;}
	.st28{fill:#FB4607;}
	.st29{fill:#F1271D;}
	.st30{fill:#EF2220;}
	.st31{fill:#EE1F23;}
</style>
<circle class="st0" cx="569.7" cy="497.7" r="436.7"/>
<path class="st0" d="M2595.1,460.8c0,44.1,0,88.3,0,132.5c-395.9,0-791.7,0-1187.7-0.2c5-0.7,10.1-1,15.2-1.7
	c11.7-1.7,22.6-5.7,33-11.4c3.2-2.1,6.2-4.1,9.4-6.1c1.9-1.4,3.6-2.7,5.5-4.1c1.3-0.9,2.4-1.8,3.7-2.8c1.1-1.1,2.1-2.2,3.3-3.3
	c1.7-1.7,3.3-3.4,5.1-5.1c1.7-2,3.3-4,5.1-6c2.2-3,4.2-6,6.3-9.1c2-3.6,4-7.2,5.9-10.9c1.9-4.7,3.7-9.3,5.5-14.1
	c1.1-5.1,2.1-9.9,3.2-15c0.3-3.3,0.6-6.4,1-9.7c0.2-2.5,0.3-4.9,0.4-7.4c-0.3-3.9-0.6-7.6-0.9-11.5c-1.1-5.6-2.2-11-3.2-16.6
	c-0.1-0.7-0.2-1.2-0.4-1.7c-1.5-3.9-3-7.7-4.6-11.7c-1.5-3.1-3.1-6.1-4.6-9.2c-3.4-5.2-6.4-10.5-10.3-15.1
	c-4.5-5.3-9.6-9.9-14.6-14.7c-1.9-1.8-4.4-3.1-6.6-4.6c-2.9-1.9-5.8-3.8-8.7-5.9c-3.1-1.6-6.1-3-9.2-4.6c-0.6-0.3-1.2-0.5-1.8-0.7
	c-3.7-1.2-7.4-2.5-11.2-3.9c-0.7-0.3-1.2-0.4-1.8-0.5c-6.1-1-12.3-1.9-18.5-2.9c-0.2-0.2-0.3-0.3-0.3-0.5c394,0,788,0,1182,0
	c0,22.5,0,45-0.2,67.6c-0.5-1.9-1.6-3.6-3.7-3.8c-4.6-0.5-9,0-13,2.7c-6,4-10.2,9.3-13.2,16.5c0-4.6,0-8.5,0-12.5s-2.3-6.3-6.3-6.3
	c-2.3,0-4.6,0.2-6.9,0c-3.5-0.3-6.7,2.4-6.6,6.6c0.1,4.1,0,8.3,0,12.5c0,19,0,38,0,57c0,3.4,2.3,6.6,6.3,6.2c2.6-0.2,5.2,0,7.8,0
	c4.5,0,6.7-2.2,6.7-6.9c0-8.4,0.1-16.8,0-25.1c-0.1-5.6,0.7-11.1,2.8-16.3c3.4-8.4,9.3-13.8,18.6-14.3
	C2591.4,465.8,2594.1,464.8,2595.1,460.8 M1902.8,470.3c-0.2-0.4-0.3-0.8-0.5-1.3c-3.3-9.3-8.9-16.7-17.9-21.1
	c-5.7-2.8-11.8-3.5-18-3.3c-5.5,0.2-10.7,1.6-15.2,4.8c-3.3,2.3-6.1,5.3-8.9,7.8c0-1.4,0-3.1,0-4.9c0-3.4-2.4-5.8-5.8-5.9
	c-2.1,0-4.2,0-6.2,0c-4.6,0-6.9,2.3-6.9,7c0,22.6,0,45.2,0,67.8c0,11.1,0,22.1,0,33.2c0,4.1,2.4,6.4,6.5,6.5c2.6,0,5.2,0,7.8,0
	c3.1,0,6.6-2,6.5-6.4c-0.2-10.9-0.1-21.8-0.1-32.8c0-0.7,0-1.4,0-2.1c2.1,2,3.9,4,6.1,5.7c7.9,5.9,16.9,6.6,26,4.5
	c13.1-3.1,21.6-11.6,26.2-24.2c2.7-7.3,3-14.8,2.6-22.4C1904.8,479.1,1903.6,474.9,1902.8,470.3 M1619.9,517.9
	c6.3-7.3,8.9-16,9.6-25.4c0.3-4.3-0.1-8.7-0.4-13c-0.5-7.1-2.8-13.7-6.8-19.7c-8.1-12.1-20-16.5-33.9-15
	c-8.9,0.9-16.2,5.5-21.6,13.5c0-2.3,0-4.1,0-5.9c0-3.3-2.6-5.8-5.9-5.8c-2.5,0-4.9,0-7.4,0c-3,0-5.7,2.6-5.7,5.6
	c0,34.4,0,68.7,0,103.1c0,2.5,1.5,4.9,3.9,5.2c4.1,0.4,8.2,0.7,12.2,0.2c3.3-0.4,4.6-2.7,4.6-6.2c0-11,0-22,0-33
	c0-0.6,0.1-1.2,0.1-2.2c2.1,2.2,3.7,4.5,5.8,6.1c7.9,5.9,16.9,6.5,26.2,4.5C1608.4,528.2,1614.8,524.1,1619.9,517.9 M2326.5,446.7
	c-2.3-0.5-4.6-1.2-7-1.6c-7.1-1.2-14-0.6-20.5,2.5c-5.7,2.7-10.4,6.6-14,12.6c0-1.2,0-1.8,0-2.4c0-12.5,0-24.9,0-37.4
	c0-3.2-1.4-5.2-4.6-5.7c-2.8-0.4-5.8-0.5-8.6-0.5c-5.1,0.1-7.6,2.3-7.6,7.5c0,33.3,0,66.6,0,99.9c0,0.4,0,0.8,0,1.2
	c0.3,3.2,2.8,6.3,6.1,5.9c2.9-0.3,5.8-0.1,8.8-0.1c3.8,0,5.9-2.1,5.9-5.9c0-10.4-0.2-20.8,0.1-31.2c0.1-4,0.8-8.1,1.9-12
	c1.2-4.3,3.8-8,7.4-11c3.7-3.1,7.9-4.7,12.5-5c2.9-0.2,6.1,0.4,8.7,1.7c4.5,2.2,5.4,6.9,5.5,11.3c0.2,15,0,30,0.1,45
	c0,4.5,2.1,7.2,6.9,6.9c2.6-0.2,5.2-0.2,7.8,0c3.5,0.3,6.1-2.7,6.1-6c-0.1-15.2,0-30.5-0.1-45.7c0-3.3,0-6.7-0.5-10
	C2339.8,457.9,2335.9,450.5,2326.5,446.7 M2354.9,475.2c-2,7.3-2.2,14.6-0.7,22c2.2,11.1,8.2,19.7,17.4,25.8
	c11.6,7.7,24.6,9.5,38.2,6.6c10-2.2,18.5-7.2,24.8-15.2c8.2-10.4,10.7-22.2,8.3-35.2c-1.9-10.1-6.8-18.3-14.9-24.7
	c-11.3-9-24.3-11.4-38.1-9.3c-10.2,1.5-19.1,6.2-26.1,14.1C2359.7,463.9,2356.7,469,2354.9,475.2 M1793.6,451.6
	c-6.3-3.9-13.2-6.3-20.6-6.9c-10.4-0.8-20.4,0.7-29.6,6.2c-4.7,2.9-8.9,6.3-12.2,10.6c-7.2,9.8-9.7,20.8-8,32.8
	c1.8,12.4,7.9,21.9,18.2,28.7c8.9,5.9,18.7,8.1,29.5,7.5c9.2-0.5,17.5-3.1,24.9-8.4c7.1-5.2,12.4-11.8,15.2-20.3
	c2.3-7,3.1-14.2,1.7-21.4c-0.9-4.4-2.6-8.7-4.4-12.8C1805.3,460.8,1800,455.9,1793.6,451.6 M2030,488c2.1-2.7,1.4-5.7,1.2-8.9
	c-0.4-6.5-2.1-12.5-5.3-18.1c-4-7-9.9-11.9-17.5-14.4s-15.4-2.6-23.3-1c-9.7,1.9-17.7,6.7-23.5,14.6c-8.1,11.1-10,23.8-7.5,37.1
	c1.6,8.5,5.6,15.8,11.8,21.8c3.6,3.4,7.7,6,12.2,8c8.4,3.7,17.4,4.6,26.3,3.2c5.4-0.8,10.7-3,15.9-5c2.3-0.9,4.6-2.3,6.5-3.9
	c2.1-1.7,2.5-4.3,1.4-6.8c-0.9-2-2-4-3.3-5.8c-2.1-2.8-4.9-3.3-8.4-1.3c-7,3.8-14.2,6.4-22.4,4.9c-6.7-1.2-12.4-4.2-15.8-10.3
	c-1.9-3.4-3-7.3-4.6-11.4c1.6,0,2.4,0,3.3,0c15.5,0,31.1,0,46.6,0C2026.1,490.9,2028.2,490.3,2030,488 M1697.7,509.3
	c-6.4,3.4-13.2,4.7-20.3,3c-7.8-1.8-13.7-6.4-16.6-14.1c-0.9-2.3-1.3-4.8-2-7.4c1.4,0,2.2,0,3.1,0c15.8,0,31.7,0,47.5,0
	c3.5,0,6.4-3,6.5-6.4c0.3-8.5-1.4-16.4-5.6-23.8c-2.8-4.8-6.5-8.6-11.4-11.3c-9.4-5.2-19.4-5.8-29.6-3.6
	c-12.5,2.7-21.7,9.9-27.3,21.5c-4.7,10-5.4,20.6-3.1,31.2c2.8,12.7,10.2,22.2,21.9,27.9c9.1,4.4,18.8,5.5,29,3.9
	c7.3-1.1,13.9-3.8,20.2-7.5c2-1.2,3.4-2.9,3.2-5.6c-0.2-3.8-2.3-6.6-4.7-9.2c-1.3-1.4-3.4-1.9-5.4-0.9
	C1701.5,507.8,1699.8,508.5,1697.7,509.3 M2476.1,502.4c-0.2-2.7-0.4-5.3-0.5-8c0-13.8,0-27.5,0-41.3c0-4.2-2.4-6.6-6.5-6.6
	c-2,0-4,0.1-6,0c-5.9-0.5-8.4,2.3-8.3,8.4c0.3,14.4,0.1,28.9,0.1,43.4c0,5.2,0.2,10.4,1.8,15.5c1.9,5.9,5.1,10.7,10.7,13.6
	c5.9,3.1,12.3,3.9,19,3.3c5.6-0.5,10.8-2,15.3-5.3c3.8-2.8,6.9-6.5,10.1-9.6c0,2-0.1,4.6,0,7.2c0.1,3.4,2,5.8,5.8,5.7
	c2.8-0.1,5.7,0,8.5,0c3.3,0,5.5-2.2,5.5-5.5c0-23.5,0-47.1,0-70.6c0-3.6-2.5-6-6.1-6.1c-2.6,0-5.2,0-7.8,0c-4.5,0-6.8,2.3-6.8,6.8
	c0,10.3,0.1,20.6,0,30.9c0,2.8-0.2,5.8-0.9,8.5c-2.2,8.8-7,15.8-16.3,18.2C2485.7,512.9,2478.5,511.5,2476.1,502.4 M1917.6,456
	c0.2,18.1,0.1,36.2,0.6,54.3c0.2,6.3,3,11.9,8.7,15.6c5.5,3.6,11.6,4,17.8,3.5c3-0.2,4.8-2.4,4.7-5.6c-0.1-2.5,0-5.1,0-7.6
	c0-3-1.5-4.7-4.4-5.2c-1.1-0.2-2.2-0.4-3.2-0.9c-3-1.5-3.4-4.4-3.5-7.3c-0.1-20.9,0-41.8,0-62.7c0-6.2,0-12.5,0-18.7
	c0-4.1-1.4-6.1-5.4-6.9c-2.7-0.5-5.6-0.4-8.4-0.4c-4.6,0.1-6.9,1.9-6.9,6.9C1917.6,432.6,1917.6,444.1,1917.6,456 M2044.5,510
	c0,16,0,32,0,48c0,0.9,0.4,2.3,0.9,2.4c1.5,0.3,3.3,0.5,4.7,0c0.7-0.2,1.2-2.1,1.2-3.2c0.1-13.6,0.1-27.2,0.1-40.8
	c0-0.6,0.1-1.2,0.1-2.2c2,3.8,6.5,8.8,9.2,10.8c7.7,5.5,16.2,6.8,25.4,5.1c10.7-2,18.4-8.2,23.3-17.5c4.7-8.9,6.2-18.6,5.3-28.8
	c-0.7-7.7-2.3-14.9-6.1-21.6c-3.7-6.5-9-11.2-16.1-13.8c-6.1-2.3-12.3-2.9-18.7-1.8c-4.6,0.8-8.8,2.4-12.8,5.1
	c-4.1,2.8-7.2,6.4-9.5,10.8c-0.1-0.2-0.2-0.2-0.2-0.3c0-3.6,0-7.2,0-10.8c0-2.5-0.9-3.4-3.4-3.5c-2.6,0-3.6,0.9-3.6,3.5
	C2044.5,470.8,2044.5,490.1,2044.5,510 M2183.7,520.8c-11.6,4.7-22.9,4-33.3-3c-10.4-7.1-14.5-17.7-14.7-30.2c7.5,0,15,0,22.5,0
	c12.8,0,25.7,0,38.5,0c2.9,0,3.8-0.9,3.8-3.8c0-1.4-0.4-2.9-0.4-4.3c0-4.7-1.2-9.2-2.8-13.6c-2.8-7.3-7.5-13.2-14.7-16.6
	c-6.2-2.9-12.7-3.7-19.5-2.9c-8.7,1-16.4,4.3-22.7,10.3c-8.3,7.9-11.6,18.1-12.1,29.2c-0.2,4.7,0.3,9.6,1.4,14.2
	c2.7,11.7,9.4,20.5,20.1,26c9.7,5,20,6.1,30.6,3.5c6.1-1.5,11.8-4.2,16.6-8.5c1.5-1.4,1.3-3-0.5-5.1c-1.3-1.6-2.7-1.2-4.2-0.3
	C2189.4,517.3,2186.7,519.1,2183.7,520.8 M2252.1,447.6c-2.3,0.2-4.6,0.1-6.7,0.5c-7.6,1.5-13,6.2-17.2,12.5c-1.3,1.9-2.3,4-3.7,6.3
	c0-5.4-0.1-10.4,0-15.4c0-2.1-0.7-3.6-3.8-3.5c-3,0.1-3.6,1.3-3.6,3.5c0,24.7,0,49.4,0,74c0,2.7,0.6,3.2,3.7,3.2
	c3.3,0,3.7-0.3,3.7-3.1c0-4.4,0-8.8,0-13.1c0.1-8.4,0.1-16.8,0.5-25.3c0.3-6.5,2.4-12.6,5.4-18.3c4.6-8.6,11.3-13.8,21.3-14.1
	c0.9,0,2.4-1.2,2.6-2.2C2255.1,449.9,2254.3,448.4,2252.1,447.6z"/>
<path class="st1" d="M794.3,920.3c-46.5,25.7-95.7,43.8-148.5,51c-23,3.2-46.1,4.5-69.5,7.7c-7.2,0.9-14.4,0.9-22.6,0
	c-34.8-0.5-67.7-4.5-99.8-12.6c-45.2-11.3-88-28-128.2-51c-55.1-32.1-101.6-73.6-140.4-123.3c-26.2-33.4-46.5-70.4-62.3-110.2
	c-15.4-37.9-26.2-77.2-30.3-118.3c-0.9-9.9-2.7-19.9-4.1-29.8c0-20.3,0-40.2,0.9-61.9c4.5-27.1,6.8-52.8,12.2-78.1
	c8.1-38.8,21.2-75.9,42-110.2c4.1,3.6,7.2,6.3,10.4,9.5c18.1,17.6,36.1,35.2,53.7,53.7c-17.2,39.3-28.4,79.5-30.7,121
	c-2.7,47,0,93.9,13.5,140.4c16.7,57.3,44.2,108.4,83.5,152.6c36.1,41.1,79.5,73.1,129.6,96.2c43.8,19.9,89.4,31.6,136.8,34.8
	c28.4,1.8,57.3,0,85.3-4.1c36.6-5.4,71.8-16.3,105.2-31.6c15.8,16.7,31.2,33,46.5,48.8C782.1,910.4,788.4,915.4,794.3,920.3z"/>
<path class="st2" d="M2595.1,460.6c-1.1,4.2-3.8,5.2-7.7,5.4c-9.3,0.5-15.2,6-18.6,14.3c-2.1,5.2-2.9,10.7-2.8,16.3
	c0.1,8.4,0,16.8,0,25.1c0,4.6-2.2,6.9-6.7,6.9c-2.6,0-5.2-0.2-7.8,0c-4,0.4-6.3-2.8-6.3-6.2c0.1-19,0-38,0-57c0-4.2,0.1-8.3,0-12.5
	c-0.1-4.1,3.1-6.9,6.6-6.6c2.3,0.2,4.6,0,6.9,0c4,0,6.3,2.3,6.3,6.3s0,7.9,0,12.5c2.9-7.2,7.2-12.5,13.2-16.5c4-2.7,8.5-3.1,13-2.7
	c2,0.2,3.1,1.9,3.7,4C2595.1,453.6,2595.1,457,2595.1,460.6z"/>
<path class="st3" d="M519.3,30.4c1.4-0.5,2.7-0.9,4.1-1.8c25.7-0.5,51.5-0.5,78.6-0.5c1.4,0.5,1.8,1.4,2.7,2.7
	c3.2,3.6,5,6.8,7.7,9.5c30.3,30.3,60.5,60.5,90.3,90.8c2.7,3.2,4.5,7.2,5.9,10.8c-36.1-15.4-73.6-23-112-27.5
	c-2.3-4.1-4.1-8.1-6.8-10.8c-21.2-21.7-42.9-42.9-64.1-64.1C523.4,36.8,521.5,33.1,519.3,30.4z"/>
<path class="st2" d="M1902.8,470.5c0.8,4.4,2,8.5,2.2,12.8c0.4,7.6,0.1,15.1-2.6,22.4c-4.6,12.6-13.1,21.1-26.2,24.2
	c-9.1,2.1-18.1,1.4-26-4.5c-2.2-1.6-4-3.7-6.1-5.7c0,0.6,0,1.3,0,2.1c0,10.9-0.1,21.8,0.1,32.8c0.1,4.4-3.4,6.5-6.5,6.4
	c-2.6,0-5.2,0-7.8,0c-4.1,0-6.5-2.4-6.5-6.5c0-11.1,0-22.1,0-33.2c0-22.6,0-45.2,0-67.8c0-4.7,2.3-7,6.9-7c2.1,0,4.2,0,6.2,0
	c3.4,0,5.8,2.5,5.8,5.9c0,1.8,0,3.5,0,4.9c2.8-2.5,5.7-5.5,8.9-7.8c4.5-3.2,9.6-4.6,15.2-4.8c6.3-0.2,12.4,0.5,18,3.3
	c9,4.5,14.6,11.8,17.9,21.1C1902.5,469.5,1902.7,469.9,1902.8,470.5 M1843.8,490.9c0.8,3.2,1.2,6.5,2.4,9.5
	c2.6,6.7,7.5,11.3,14.7,12.4c8.9,1.4,16.4-2.9,20.3-11.1c3.8-7.9,3.8-16.2,1.4-24.5s-9.6-15.5-19.9-14.7
	c-7.4,0.6-13.6,5.1-16.5,12.1C1844,479.8,1843.5,485.1,1843.8,490.9z"/>
<path class="st2" d="M1619.9,518c-5.1,6.1-11.5,10.2-19.1,11.8c-9.2,2-18.3,1.4-26.2-4.5c-2.1-1.6-3.7-3.8-5.8-6.1
	c-0.1,1-0.1,1.6-0.1,2.2c0,11,0,22,0,33c0,3.4-1.3,5.8-4.6,6.2c-4,0.4-8.2,0.2-12.2-0.2c-2.4-0.3-3.9-2.7-3.9-5.2
	c0-34.4,0-68.7,0-103.1c0-3,2.6-5.6,5.7-5.6c2.5,0,4.9,0,7.4,0c3.3,0,5.8,2.6,5.9,5.8c0,1.8,0,3.6,0,5.9c5.4-8,12.6-12.6,21.6-13.5
	c14-1.4,25.8,2.9,33.9,15c4,5.9,6.3,12.5,6.8,19.7c0.3,4.3,0.7,8.7,0.4,13C1628.8,501.9,1626.3,510.6,1619.9,518 M1604.2,471.6
	c-3.7-6.1-9.1-9.1-16.3-9c-8.4,0.1-14.4,5.2-17.3,11.9c-3.1,7.1-3.3,14.5-1.4,21.9c2.3,9.2,9.3,17.4,20.5,16.5
	c7.4-0.6,13.3-5.2,16.4-12.2c2.5-5.5,2.6-11.3,2.2-17.1C1608,479.5,1606.9,475.4,1604.2,471.6z"/>
<path class="st2" d="M2326.6,446.8c9.3,3.7,13.2,11.1,14.6,20.2c0.5,3.3,0.5,6.7,0.5,10c0,15.2-0.1,30.5,0.1,45.7
	c0,3.3-2.6,6.3-6.1,6c-2.6-0.2-5.2-0.2-7.8,0c-4.7,0.3-6.9-2.5-6.9-6.9c-0.1-15,0.1-30-0.1-45c-0.1-4.5-0.9-9.1-5.5-11.3
	c-2.6-1.3-5.8-1.9-8.7-1.7c-4.5,0.3-8.8,1.8-12.5,5c-3.6,3-6.1,6.7-7.4,11c-1.1,3.9-1.8,8-1.9,12c-0.3,10.4-0.1,20.8-0.1,31.2
	c0,3.8-2.1,5.8-5.9,5.9c-2.9,0-5.9-0.3-8.8,0.1c-3.4,0.4-5.8-2.7-6.1-5.9c0-0.4,0-0.8,0-1.2c0-33.3,0-66.6,0-99.9
	c0-5.3,2.5-7.5,7.6-7.5c2.9,0,5.8,0,8.6,0.5c3.2,0.5,4.6,2.5,4.6,5.7c0,12.5,0,24.9,0,37.4c0,0.6,0,1.2,0,2.4c3.5-6,8.2-9.9,14-12.6
	c6.5-3.1,13.5-3.7,20.5-2.5C2321.9,445.5,2324.2,446.2,2326.6,446.8z"/>
<path class="st2" d="M2355,475c1.7-6,4.7-11.1,8.8-15.7c7-7.9,15.9-12.5,26.1-14.1c13.8-2.1,26.8,0.3,38.1,9.3
	c8,6.4,13,14.6,14.9,24.7c2.5,13-0.1,24.9-8.3,35.2c-6.3,8-14.8,13-24.8,15.2c-13.6,2.9-26.5,1.1-38.2-6.6
	c-9.2-6.1-15.2-14.7-17.4-25.8C2352.7,489.7,2352.9,482.4,2355,475 M2376.4,498.3c1.4,2.2,2.5,4.7,4.2,6.6
	c6.1,6.7,13.7,9.3,22.6,7.6c5-1,9.6-3.3,12.9-7.3c5.5-6.6,7.5-14.2,5.9-22.7c-0.9-4.5-2.6-8.6-5.8-11.9c-5.6-6-12.4-8.9-20.8-7.9
	c-6.2,0.8-11.3,3.4-15.3,8.4C2373.6,479.3,2373.1,488.3,2376.4,498.3z"/>
<path class="st2" d="M1793.7,451.7c6.2,4.2,11.5,9.1,14.6,15.9c1.8,4.1,3.5,8.4,4.4,12.8c1.4,7.2,0.6,14.4-1.7,21.4
	c-2.8,8.5-8.1,15.1-15.2,20.3c-7.4,5.4-15.7,7.9-24.9,8.4c-10.7,0.6-20.6-1.6-29.5-7.5c-10.3-6.8-16.5-16.3-18.2-28.7
	c-1.7-12.1,0.7-23.1,8-32.8c3.2-4.4,7.5-7.8,12.2-10.6c9.2-5.6,19.2-7,29.6-6.2C1780.4,445.3,1787.3,447.7,1793.7,451.7 M1787.4,503
	c5.3-8.3,6.2-17.1,2.4-26.2c-3.5-8.5-12.9-15.6-24.7-14.2c-9.1,1.1-15.6,6-19,14.2c-3.8,9.3-3.2,18.5,3,26.9
	c5.4,7.4,15.9,10.9,24.5,8.5C1779.2,510.7,1783.8,507.9,1787.4,503z"/>
<path class="st2" d="M2029.9,488.1c-1.7,2.2-3.8,2.7-6.3,2.7c-15.5-0.1-31.1,0-46.6,0c-0.8,0-1.7,0-3.3,0c1.6,4.1,2.7,8,4.6,11.4
	c3.4,6,9.1,9,15.8,10.3c8.2,1.5,15.4-1.1,22.4-4.9c3.6-1.9,6.4-1.5,8.4,1.3c1.3,1.8,2.4,3.8,3.3,5.8c1.1,2.5,0.6,5-1.4,6.8
	c-1.9,1.6-4.2,3-6.5,3.9c-5.2,1.9-10.5,4.1-15.9,5c-8.9,1.4-17.9,0.5-26.3-3.2c-4.5-2-8.6-4.5-12.2-8c-6.3-6-10.2-13.3-11.8-21.8
	c-2.6-13.3-0.7-26,7.5-37.1c5.8-7.9,13.8-12.7,23.5-14.6c7.9-1.6,15.7-1.5,23.3,1c7.7,2.5,13.6,7.4,17.5,14.4
	c3.2,5.6,4.9,11.6,5.3,18.1C2031.4,482.3,2032.1,485.3,2029.9,488.1 M2003.2,477.9c2.5,0,5,0,7.6,0c-1-11.6-7.8-18.2-17.9-17.4
	c-10.7,0.8-17.1,9.7-17.4,17.4C1984.6,477.9,1993.7,477.9,2003.2,477.9z"/>
<path class="st2" d="M1697.9,509.3c1.9-0.8,3.6-1.5,5.2-2.3c2.1-1,4.1-0.5,5.4,0.9c2.3,2.6,4.4,5.4,4.7,9.2c0.2,2.7-1.3,4.4-3.2,5.6
	c-6.2,3.7-12.9,6.4-20.2,7.5c-10.1,1.6-19.9,0.5-29-3.9c-11.7-5.7-19.1-15.2-21.9-27.9c-2.3-10.6-1.6-21.2,3.1-31.2
	c5.5-11.6,14.8-18.8,27.3-21.5c10.2-2.2,20.2-1.6,29.6,3.6c4.9,2.7,8.6,6.6,11.4,11.3c4.3,7.3,6,15.3,5.6,23.8
	c-0.1,3.5-3,6.4-6.5,6.4c-15.8,0-31.7,0-47.5,0c-0.8,0-1.7,0-3.1,0c0.7,2.7,1.2,5.1,2,7.4c2.9,7.7,8.8,12.3,16.6,14.1
	C1684.5,514,1691.3,512.7,1697.9,509.3 M1660.1,476.3c-0.1,0.5-0.3,1-0.5,1.5c11.9,0,23.6,0,35.7,0c-0.2-1.7-0.3-3.3-0.6-4.7
	c-3-11.3-13.6-15.2-23.2-11C1665.3,464.8,1662.1,469.8,1660.1,476.3z"/>
<path class="st2" d="M2476.2,502.6c2.4,9,9.5,10.4,17.2,8.4c9.3-2.4,14.1-9.3,16.3-18.2c0.7-2.7,0.9-5.7,0.9-8.5
	c0.1-10.3,0-20.6,0-30.9c0-4.5,2.3-6.8,6.8-6.8c2.6,0,5.2,0,7.8,0c3.6,0,6.1,2.5,6.1,6.1c0,23.5,0,47.1,0,70.6
	c0,3.3-2.2,5.5-5.5,5.5c-2.8,0-5.7,0-8.5,0c-3.8,0.1-5.7-2.3-5.8-5.7c-0.1-2.6,0-5.2,0-7.2c-3.2,3.1-6.3,6.8-10.1,9.6
	c-4.4,3.3-9.6,4.8-15.3,5.3c-6.7,0.6-13-0.3-19-3.3c-5.6-2.9-8.8-7.7-10.7-13.6c-1.6-5.1-1.8-10.2-1.8-15.5
	c0.1-14.5,0.2-28.9-0.1-43.4c-0.1-6,2.4-8.8,8.3-8.4c2,0.2,4,0,6,0c4.2,0,6.5,2.4,6.5,6.6c0,13.8,0,27.5,0,41.3
	C2475.6,497.1,2475.9,499.7,2476.2,502.6z"/>
<path class="st2" d="M1917.6,455.7c0-11.7,0-23.1,0-34.6c0-5,2.3-6.8,6.9-6.9c2.8-0.1,5.7-0.1,8.4,0.4c4,0.8,5.4,2.8,5.4,6.9
	c0,6.2,0,12.5,0,18.7c0,20.9,0,41.8,0,62.7c0,2.9,0.5,5.8,3.5,7.3c1,0.5,2.1,0.8,3.2,0.9c2.9,0.5,4.4,2.2,4.4,5.2
	c0,2.5-0.1,5.1,0,7.6c0.1,3.1-1.7,5.3-4.7,5.6c-6.2,0.5-12.3,0-17.8-3.5c-5.7-3.7-8.5-9.3-8.7-15.6
	C1917.7,492.2,1917.8,474.1,1917.6,455.7z"/>
<path class="st2" d="M2044.5,509.7c0-19.6,0-39,0-58.4c0-2.6,1-3.5,3.6-3.5c2.4,0,3.3,1,3.4,3.5c0,3.6,0,7.2,0,10.8
	c0,0,0.1,0.1,0.2,0.3c2.3-4.4,5.4-8,9.5-10.8c3.9-2.7,8.2-4.3,12.8-5.1c6.3-1.1,12.6-0.5,18.7,1.8c7,2.7,12.3,7.3,16.1,13.8
	c3.8,6.7,5.4,13.9,6.1,21.6c0.9,10.2-0.5,19.9-5.3,28.8c-4.9,9.3-12.6,15.5-23.3,17.5c-9.2,1.7-17.7,0.4-25.4-5.1
	c-2.7-1.9-7.2-6.9-9.2-10.8c-0.1,1-0.1,1.6-0.1,2.2c0,13.6,0,27.2-0.1,40.8c0,1.1-0.5,2.9-1.2,3.2c-1.4,0.5-3.2,0.3-4.7,0
	c-0.5-0.1-0.9-1.6-0.9-2.4C2044.5,542,2044.5,526,2044.5,509.7 M2100.4,463.8c-2.2-3-4.8-5.4-8-7.2c-4.8-2.7-9.8-3.6-15.2-3.2
	c-7.5,0.6-13.6,3.8-18.2,9.5c-5,6.1-6.8,13.6-7.4,21.3c-0.5,5.4-0.2,10.8,1.4,16c2.1,7.4,5.5,14.2,11.9,18.8
	c6.3,4.6,13.4,5.6,20.8,3.8c6.7-1.6,11.8-5.6,15.6-11.4c2.9-4.3,4.6-9,5.5-14c1-6.2,1-12.5-0.2-18.8
	C2105.5,473.4,2103.7,468.5,2100.4,463.8z"/>
<path class="st2" d="M2183.8,520.8c2.9-1.7,5.6-3.5,8.3-5.2c1.5-0.9,2.8-1.3,4.2,0.3c1.8,2.1,2,3.7,0.5,5.1
	c-4.7,4.3-10.4,7-16.6,8.5c-10.6,2.6-20.9,1.5-30.6-3.5c-10.7-5.5-17.4-14.3-20.1-26c-1-4.6-1.6-9.5-1.4-14.2
	c0.5-11.1,3.9-21.3,12.1-29.2c6.3-6,13.9-9.3,22.7-10.3c6.9-0.8,13.4,0,19.5,2.9c7.2,3.4,11.9,9.3,14.7,16.6
	c1.7,4.3,2.8,8.8,2.8,13.6c0,1.4,0.4,2.8,0.4,4.3c0.1,2.9-0.9,3.8-3.8,3.8c-12.8,0-25.7,0-38.5,0c-7.5,0-15.1,0-22.5,0
	c0.1,12.5,4.3,23.1,14.7,30.2C2160.7,524.8,2172,525.6,2183.8,520.8 M2174.4,480.7c6,0,12.1,0,18.5,0c-0.4-2.8-0.8-5.2-1.3-7.6
	c-1.3-6.2-4.3-11.6-9.4-15.2c-9.4-6.8-19.6-6.2-29.6-1.4c-7.4,3.6-12.1,9.9-14.9,17.6c-0.8,2.1-1.1,4.3-1.7,6.7
	C2149.1,480.7,2161.5,480.7,2174.4,480.7z"/>
<path class="st4" d="M708.9,142c-2.3-3.6-3.6-8.1-6.3-11.3c-29.8-30.3-60-60.5-90.3-90.8c-2.7-2.7-5-5.9-7.2-9.5
	c27.5,3.6,55.5,8.1,83.1,12.2c2.7,0.5,5.4,0.9,8.1,3.2c2.3,5,4.1,9,6.8,11.7c101.6,102,203.6,203.6,305.7,305.7
	c3.6,3.6,8.6,5.4,12.6,8.1c5,24.4,9.9,48.8,14,74c-3.6-1.4-6.8-3.6-9.5-6.3c-33-33-65.5-65.9-98.9-98.4c-3.2-3.2-8.1-4.5-12.6-7.2
	C870.1,243.5,801,180.3,708.9,142z"/>
<path class="st2" d="M2252.3,447.7c2,0.7,2.8,2.2,2.1,4.9c-0.2,0.9-1.7,2.1-2.6,2.2c-10.1,0.3-16.8,5.5-21.3,14.1
	c-3.1,5.8-5.1,11.8-5.4,18.3c-0.4,8.4-0.4,16.8-0.5,25.3c-0.1,4.4,0,8.8,0,13.1c0,2.8-0.4,3.1-3.7,3.1c-3.1,0-3.7-0.5-3.7-3.2
	c0-24.7,0-49.4,0-74c0-2.2,0.6-3.4,3.6-3.5c3.1-0.1,3.9,1.4,3.8,3.5c-0.1,5,0,10,0,15.4c1.3-2.3,2.4-4.4,3.7-6.3
	c4.2-6.3,9.6-11,17.2-12.5C2247.6,447.7,2249.9,447.7,2252.3,447.7z"/>
<path class="st5" d="M1021.4,370.9c-4.5-1.8-9.5-4.1-13.1-7.2C906.2,262.1,804.6,160,702.6,58c-2.7-2.7-4.1-6.8-6.3-10.8
	c16.7,5,33.4,10.4,50.1,16.3c2.7,0.9,5,1.8,8.1,4.1c4.1,6.8,7.7,12.6,12.2,17.2c72.2,72.2,144.5,144.9,217.2,216.7
	c4.1,4.1,9.9,6.8,15.4,9.9c6.8,17.6,13.5,34.8,20.3,52.4C1020.5,365.4,1020.9,367.7,1021.4,370.9z"/>
<path class="st6" d="M1033.5,575.8c-5,22.1-9.5,44.2-15.4,66.4c-5-2.7-9.5-5.4-13.1-9c-16.7-16.3-33-33-49.2-49.2
	c-2.7-2.7-5.9-4.5-9-7.2c2.3-25.3,4.1-49.7,7.2-74c4.5,2.7,9,5,12.2,8.1c19.4,19.4,38.8,38.8,58.7,58.2
	C1027.2,572.2,1030.8,573.6,1033.5,575.8z"/>
<path class="st7" d="M946.9,578.1c3.2,2.3,6.3,4.1,9,6.3c16.7,16.3,33,33,49.2,49.2c3.6,3.6,8.1,6.3,13.1,9.9
	c-7.2,21.2-15.4,42-24.4,63.2c-4.1-1.8-7.7-4.5-10.4-7.2c-18.5-18.1-37-36.1-55.5-55.1C934.2,621.4,940.5,599.8,946.9,578.1z"/>
<path class="st8" d="M915.3,334.3c4.1,2.3,9,3.6,12.2,6.8c33,32.5,65.9,65.5,98.9,98.4c2.7,2.7,5.9,5,9.5,7.2
	c2.3,16.7,3.6,33.4,4.5,51c-5-2.3-9.5-4.5-13.1-8.1c-24.8-24.4-49.2-48.8-73.6-73.1c-2.7-2.7-6.3-5-9.9-7.7
	C932.9,383.1,923.8,358.7,915.3,334.3z"/>
<path class="st9" d="M927.4,644.5c18.5,18.1,37,36.6,55.5,54.6c3.2,2.7,6.3,5.4,9.9,8.1c-8.1,16.3-16.7,32.1-26.6,48.3
	c-5-2.3-9-4.5-11.7-7.7c-17.6-16.7-34.8-33.9-52.4-51.9c4.5-8.6,8.6-16.3,12.6-24.4C919.8,662.5,923.4,653.5,927.4,644.5z"/>
<path class="st10" d="M998.8,310.4c-5-2.7-10.8-5-15.4-9c-72.7-72.2-144.9-144.5-217.2-216.7c-4.5-4.5-7.7-10.4-11.7-16.3
	c13.5,5.9,27.1,12.2,41.5,20.3c2.7,5,4.5,9.5,7.7,12.6c54.6,54.6,108.8,109.3,163.9,163.4c2.7,2.7,6.8,3.6,10.4,5.4
	C984.8,282.8,992,296.4,998.8,310.4z"/>
<path class="st11" d="M794.7,919.9c-6.3-5-12.6-9.5-18.1-15.4c-15.8-15.8-31.2-32.1-46.1-49.2c15.4-9,30.3-17.2,45.2-24.8
	c20.3,20.8,40.2,41.1,60.5,61.4C822.7,901.8,809.2,910.9,794.7,919.9z"/>
<path class="st12" d="M902.6,696.8c17.6,17.2,34.8,34.3,52.4,51c3.2,3.2,7.2,5.4,11.3,8.1c-8.1,13.5-17.6,27.1-28,40.6
	c-17.2-15.8-33-31.6-49.2-47.4c-4.1-4.1-9-7.2-13.5-11.3C884.6,723.5,893.6,709.9,902.6,696.8z"/>
<path class="st13" d="M978,268.8c-3.6-0.9-7.7-1.8-10.4-4.5C913,210.1,858.4,155.5,803.7,100.9c-3.2-3.2-5-7.2-7.2-11.7
	c13.1,7.7,26.2,16.3,38.8,24.8c9.9,6.8,21.2,12.6,29.8,20.8c22.6,21.2,46.1,42.4,65.9,66.4C949.1,221.4,962.7,245.3,978,268.8z"/>
<path class="st14" d="M1034,574.9c-3.2-1.4-6.8-3.2-9-5.4c-19.4-19.4-38.8-38.8-58.7-58.2c-3.2-3.2-7.7-5.4-12.6-9
	c-1.4-17.6-2.3-34.3-1.8-51c3.6,2.3,6.8,4.5,9.5,7.2c22.6,22.6,45.2,45.2,67.7,67.7c2.7,2.7,5.9,4.1,9,6.3
	C1036.7,546,1035.4,560,1034,574.9z"/>
<path class="st3" d="M1038.5,531.1c-3.6-1.4-6.8-3.2-9.5-5.4c-22.6-22.6-45.2-45.2-67.7-67.7c-2.7-2.7-5.9-5-9.9-8.1
	c-3.6-14.4-6.3-27.5-8.6-41.1c3.2,2.3,6.8,4.5,9.9,7.2c24.4,24.4,48.8,49.2,73.6,73.1c3.6,3.6,8.1,5.9,13.1,9
	C1039.4,509.5,1039,519.9,1038.5,531.1z"/>
<path class="st15" d="M875.5,738.4c4.5,3.6,9.5,6.8,14,10.8c16.3,15.8,32.1,31.6,48.8,47.4c-6.8,9-14,18.1-22.1,26.6
	c-21.2-19.9-41.1-40.2-60.5-61C862,754.2,868.7,746.1,875.5,738.4z"/>
<path class="st16" d="M837.1,892.8c-20.8-20.3-41.1-40.6-60.5-61.9c8.6-6.3,16.3-12.2,24.8-17.2c20.3,20.3,40.2,40.2,60,60.5
	C853.4,880.2,845.7,886.5,837.1,892.8z"/>
<path class="st17" d="M854.8,763.2c19.9,19.9,39.7,40.2,60,60.5c-6.8,7.7-14,15.4-22.1,22.6c-21.2-20.3-41.1-40.2-60.5-61
	C839.9,777.7,847.5,770.4,854.8,763.2z"/>
<path class="st18" d="M862,873.8c-20.8-19.9-40.2-40.2-60.5-61c5-5.4,10.4-9.9,16.3-13.5c3.2,3.6,5.9,6.8,9,9.5
	c17.2,17.6,34.3,35.2,51.5,52.8C872.8,865.7,867.8,869.8,862,873.8z"/>
<path class="st19" d="M878.7,861.2c-17.6-17.2-34.8-34.8-51.9-52.4c-2.7-3.2-5.9-5.9-8.6-10.4c4.5-5,9.5-8.6,14-12.6
	c19.9,19.9,39.7,40.2,60,60.5C888.2,851.7,883.6,856.2,878.7,861.2z"/>
<path class="st20" d="M218.1,323c-3.2,7.7-6.8,15.4-10.4,23.5c-18.5-17.2-36.6-34.8-54.6-52.4c-3.2-3.2-6.3-6.3-10.4-9.5
	c3.2-7.7,6.8-15.4,11.7-22.6C176.6,281.9,197.4,302.7,218.1,323z"/>
<path class="st21" d="M415.4,142.9c-15.8,8.1-32.1,16.3-48.8,23.9c-18.5-18.5-35.7-36.1-52.8-54.2c-2.7-2.7-4.5-6.8-6.8-9.9
	c14.9-8.1,29.3-16.7,45.2-24.4c4.1,3.6,7.2,7.2,10.4,10.4C380.2,106.7,397.8,124.8,415.4,142.9z"/>
<path class="st22" d="M415.9,142.4c-18.5-18.1-36.1-36.1-53.7-53.7c-3.2-3.2-6.3-6.3-9.5-10.4c15.4-7.7,30.7-14.4,47-20.8
	c3.6,3.6,5.9,7.2,8.6,9.9c19,19.4,37.9,38.8,56.9,58.2C449.3,131.6,433.1,137,415.9,142.4z"/>
<path class="st23" d="M596.5,114.4c-16.7,0-33.4-0.5-51.5-1.4c-23-22.6-45.2-44.2-66.8-66.4c-2.7-2.7-4.5-6.3-7.2-9.9
	c15.4-2.3,30.7-4.5,47-6.3c3.2,3.2,5,6.8,7.2,9c21.2,21.7,42.9,42.9,64.1,64.1C592.4,106.3,594.2,110.3,596.5,114.4z"/>
<path class="st24" d="M466,125.7c-19.9-19.4-38.8-38.8-57.8-58.2c-2.7-2.7-5-6.3-7.7-10.4c12.6-5,25.3-9,38.8-12.6
	c21.7,21.2,42,41.5,62.3,62.3c2.7,2.7,5,6.3,7.2,9.9C494.9,119.8,480.9,123,466,125.7z"/>
<path class="st12" d="M306.2,103.1c2.7,3.2,4.5,6.8,7.2,9.5c17.2,17.6,34.8,35.7,51.9,53.7c-8.6,7.2-17.6,13.1-26.6,19.4
	c-2.7,1.8-5.4,4.1-8.6,5.4c-20.8-20.8-41.1-41.1-61.4-61.4C281.3,121.2,293.1,112.2,306.2,103.1z"/>
<path class="st17" d="M306.6,211c-7.7,7.7-15.8,15.4-24.4,22.6c-21.2-20.3-41.1-40.2-61-60c8.1-8.1,15.8-16.3,24.8-24.4
	c19.9,18.5,38.8,37,57.3,55.5C304.8,206.5,305.7,208.8,306.6,211z"/>
<path class="st25" d="M509.8,117.1c-3.2-3.6-5.4-7.2-8.1-9.9c-20.3-20.8-40.6-41.1-61.4-62.3c9.5-3.2,19.4-5.9,30.3-8.6
	c3.2,3.6,5,7.2,8.1,9.9c21.7,22.1,43.3,43.8,65.5,66.8C533.3,114.9,522,116.2,509.8,117.1z"/>
<path class="st26" d="M260.6,259.3c-6.3,8.6-12.2,17.2-19.4,25.7c-21.2-20.3-41.5-40.6-61.9-61c5.9-8.1,11.7-16.3,18.5-24.4
	c19.4,19,37.9,37.9,56.4,56.4C256.1,257.1,258.8,258,260.6,259.3z"/>
<path class="st15" d="M307.5,211c-1.8-1.8-2.7-4.5-4.1-5.9c-18.5-18.5-37.5-37-56.4-56c6.8-6.3,13.5-12.6,21.7-19
	c20.8,19.9,41.1,40.2,61.4,61.4C322.4,198.4,315.2,204.7,307.5,211z"/>
<path class="st27" d="M178.9,224.1c20.8,19.9,41.1,40.2,61.9,61.4c-3.6,6.8-7.7,13.1-12.6,19.4c-21.7-19.9-42.4-40.2-62.8-60.5
	C169.4,237.7,173.9,230.9,178.9,224.1z"/>
<path class="st19" d="M220.4,174c20.8,19.4,40.6,39.3,61,60c-3.6,5.4-7.2,9.9-11.7,14.4c-3.6-3.2-6.8-6.3-9.5-9.5
	c-17.2-17.6-34.3-35.2-51.5-52.8C212.3,182.1,216.3,178.1,220.4,174z"/>
<path class="st11" d="M164.4,244.4c21.2,19.9,41.5,40.2,62.8,60.5c-2.3,5.9-5,11.3-8.6,17.6c-21.2-19.9-42-40.6-63.7-61.4
	C157.6,255.7,160.8,250.3,164.4,244.4z"/>
<path class="st18" d="M208.2,186.2c17.6,17.2,34.8,34.8,51.9,52.4c2.7,3.2,5.9,5.9,9,9.5c-2.3,3.6-5,6.8-8.1,10.4
	c-2.3-0.5-5-1.4-6.3-2.7c-18.5-18.5-37-37.5-56-56.4C201.4,194.3,204.6,190.7,208.2,186.2z"/>
<path class="st0" d="M1843.8,490.7c-0.3-5.6,0.2-10.9,2.3-16c2.9-7,9.1-11.5,16.5-12.1c10.3-0.8,17.5,6.4,19.9,14.7
	c2.4,8.3,2.4,16.6-1.4,24.5c-3.9,8.2-11.4,12.5-20.3,11.1c-7.2-1.1-12.1-5.8-14.7-12.4C1845,497.4,1844.5,494.1,1843.8,490.7z"/>
<path class="st0" d="M1604.3,471.8c2.6,3.7,3.7,7.7,3.9,11.9c0.4,5.8,0.3,11.6-2.2,17.1c-3.1,7-9.1,11.6-16.4,12.2
	c-11.2,0.9-18.2-7.3-20.5-16.5c-1.9-7.4-1.6-14.9,1.4-21.9c2.9-6.7,9-11.8,17.3-11.9C1595.2,462.5,1600.5,465.5,1604.3,471.8z"/>
<path class="st0" d="M2376.4,498.1c-3.3-9.8-2.8-18.9,3.9-27.1c4-4.9,9-7.6,15.3-8.4c8.4-1,15.2,1.9,20.8,7.9
	c3.2,3.4,4.9,7.5,5.8,11.9c1.6,8.5-0.4,16.2-5.9,22.7c-3.3,3.9-7.8,6.3-12.9,7.3c-8.9,1.7-16.6-0.8-22.6-7.6
	C2378.9,503,2377.8,500.5,2376.4,498.1z"/>
<path class="st0" d="M1787.3,503.1c-3.5,4.8-8.1,7.6-13.7,9.1c-8.7,2.4-19.1-1.1-24.5-8.5c-6.2-8.4-6.8-17.7-3-26.9
	c3.4-8.2,9.9-13.1,19-14.2c11.8-1.4,21.2,5.6,24.7,14.2C1793.6,485.9,1792.8,494.7,1787.3,503.1z"/>
<path class="st0" d="M2003,477.9c-9.3,0-18.4,0-27.4,0c0.2-7.8,6.7-16.6,17.4-17.4c10.1-0.7,16.8,5.8,17.9,17.4
	C2008.3,477.9,2005.7,477.9,2003,477.9z"/>
<path class="st0" d="M1660.1,476.1c2-6.3,5.2-11.3,11.3-14c9.6-4.3,20.3-0.4,23.2,11c0.4,1.5,0.4,3.1,0.6,4.7c-12.1,0-23.8,0-35.7,0
	C1659.8,477.2,1659.9,476.8,1660.1,476.1z"/>
<path class="st0" d="M2100.5,464c3.2,4.5,5,9.4,6,14.7c1.2,6.3,1.2,12.6,0.2,18.8c-0.8,5-2.6,9.7-5.5,14c-3.9,5.8-8.9,9.7-15.6,11.4
	c-7.4,1.8-14.5,0.8-20.8-3.8c-6.4-4.7-9.7-11.4-11.9-18.8c-1.5-5.2-1.8-10.7-1.4-16c0.6-7.7,2.4-15.1,7.4-21.3
	c4.7-5.7,10.8-9,18.2-9.5c5.4-0.4,10.5,0.5,15.2,3.2C2095.6,458.4,2098.2,460.9,2100.5,464z"/>
<path class="st0" d="M2174.2,480.7c-12.7,0-25.1,0-38,0c0.6-2.4,0.9-4.6,1.7-6.7c2.8-7.7,7.5-14,14.9-17.6c10-4.8,20.2-5.4,29.6,1.4
	c5.1,3.7,8.1,9,9.4,15.2c0.5,2.4,0.8,4.9,1.3,7.6C2186.5,480.7,2180.5,480.7,2174.2,480.7z"/>
<path class="st18" d="M296.2,321.6c11.3-11.7,24.4-19,41.1-22.1c1.4,1.8,1.8,3.2,2.7,4.1c35.7,35.2,70.9,70.4,106.6,105.7
	c-2.3,15.8-10.8,28-22.6,38.8c-40.2-39.7-79.5-79-118.3-118.3C302.6,326.6,299.4,324.4,296.2,321.6z"/>
<path class="st28" d="M295.3,321.6c3.6,2.3,7.2,5,9.9,8.1c39.3,39.3,78.6,78.6,117.8,118.7c-9,12.6-22.1,18.5-36.6,22.6
	c-1.8-2.3-2.7-4.1-3.6-5c-33.9-34.3-68.2-68.2-102.5-102.5c-1.8-1.8-4.5-2.7-6.8-4.1C276.8,344.7,285,332.9,295.3,321.6z"/>
<path class="st29" d="M788.4,471.5c-20.8,8.1-41.5,5.4-61.4-2.3c-30.3-12.2-48.8-35.2-54.2-67.3c-2.3-13.5,0.9-28,3.2-42.4
	c3.6,0.9,5.9,1.8,7.2,3.6c33.9,33.9,67.7,67.3,101.1,101.1C785.7,466.1,787,468.8,788.4,471.5z"/>
<path class="st20" d="M273.7,360c2.3,0.5,5,1.4,7.2,3.2c34.3,33.9,68.2,68.2,102.5,102.5c1.4,1.4,1.8,2.7,2.7,5
	c-30.3,10.8-57.8,5-82.2-14c-23.9-18.5-35.2-44.2-34.3-74.9C269.6,374.5,271.9,367.7,273.7,360z"/>
<path class="st17" d="M447.5,408.8c-36.1-34.8-71.8-70-107.5-105.2c-0.9-0.9-1.4-2.3-1.8-4.5c26.6-9.5,51-2.7,73.1,11.7
	c28,18.1,39.3,46.1,39.3,78.6C450.7,395.7,448.9,402,447.5,408.8z"/>
<path class="st30" d="M788.8,471.5c-2.3-2.3-3.2-5-5-6.8C750,430.9,716.6,397,682.7,363.6c-1.8-1.8-4.1-2.7-6.8-4.1
	c3.6-8.6,7.7-17.2,12.6-26.2c4.1,1.8,7.2,4.1,9.5,6.8c34.8,34.8,69.5,69.5,104.3,104.3c4.5,4.5,8.6,9,12.6,13.5
	C806.9,462.1,798.3,467,788.8,471.5z"/>
<path class="st25" d="M713,309c6.3-3.2,13.1-6.3,20.3-9c3.2,3.6,5.4,6.8,8.1,9.5c26.6,26.6,53.3,53.3,79.9,79.9
	c8.1,8.1,17.2,16.3,25.3,24.4c-3.2,6.8-6.3,13.5-10.4,19.9c-37.5-37-74-73.6-110.2-110.2C721.6,318.9,717.5,313.5,713,309z"/>
<path class="st23" d="M847.5,412.9c-9-7.7-18.1-15.8-26.2-23.9c-26.6-26.6-53.3-53.3-79.9-79.9c-2.7-2.7-5-5.9-7.2-9.5
	c9.9-2.3,19.4-3.6,30.3-4.1c2.3,3.2,2.7,5.9,4.5,7.7c23.9,24.4,48.3,48.3,72.2,72.2c2.3,2.3,5.9,2.7,9,4.1
	C849.8,390.7,848.9,401.6,847.5,412.9z"/>
<path class="st31" d="M712.5,309c5,4.5,9.5,9.5,14,14c36.6,36.6,72.7,73.1,109.7,110.6c-1.8,4.5-4.5,8.6-8.1,12.6
	c-40.2-38.8-79-77.2-117.8-116c-3.6-3.6-6.3-7.2-9.5-10.8C704.4,316.2,708,312.6,712.5,309z"/>
<path class="st24" d="M699.9,319.4c4.1,3.2,6.8,7.2,10.4,10.4c38.8,38.8,77.7,77.2,116.9,116.5c-3.2,3.6-6.8,6.8-11.3,10.4
	c-5-4.5-9-9-13.1-13.5c-34.8-34.8-69.5-69.5-104.3-104.3c-2.7-2.7-5.9-5-9.5-7.2C692.2,328,695.8,323.9,699.9,319.4z"/>
<path class="st14" d="M850.7,379c-3.2-0.5-6.8-1.4-9-3.2c-24.4-23.9-48.3-48.3-72.2-72.2c-1.8-1.8-2.7-4.5-3.6-7.7
	c43.8,1.8,76.8,32.1,85.3,74.5C851.1,372.7,850.7,375.4,850.7,379z"/>
</svg>
