<?xml version="1.0" encoding="utf-8"?>
<!-- Generator: Adobe Illustrator 26.2.1, SVG Export Plug-In . SVG Version: 6.00 Build 0)  -->
<svg version="1.1" id="Layer_1" xmlns="http://www.w3.org/2000/svg" xmlns:xlink="http://www.w3.org/1999/xlink" x="0px" y="0px"
	 viewBox="0 0 2851.8 798.3" style="enable-background:new 0 0 2851.8 798.3;" xml:space="preserve">
<style type="text/css">
	.st0{display:none;fill:#FFFFFF;}
	.st1{display:none;fill:#FE5000;}
	.st2{fill:#FFFFFF;}
	.st3{display:none;fill:#EE2022;}
</style>
<path class="st0" d="M1855,218.8c-9.3,0.5-15.2,6-18.6,14.3c-2.1,5.2-2.9,10.7-2.8,16.3c0.1,8.4,0,16.8,0,25.1
	c0,4.6-2.2,6.9-6.7,6.9c-2.6,0-5.2-0.2-7.8,0c-4,0.4-6.3-2.8-6.3-6.2c0.1-19,0-38,0-57c0-4.2,0.1-8.3,0-12.5
	c-0.1-4.1,3.1-6.9,6.6-6.6c2.3,0.2,4.6,0,6.9,0c4,0,6.3,2.3,6.3,6.3c0,4,0,7.9,0,12.5c2.9-7.2,7.2-12.5,13.2-16.5
	c4-2.7,8.5-3.1,13-2.7c2,0.2,3.1,1.9,3.7,3.8c0.2-22.6,0.2-45.1,0.2-67.6H754.8v20.5h17.6v24.7h15.3V346
	c358.4,0.1,716.7,0.1,1075,0.1V213.7C1861.6,217.6,1858.9,218.6,1855,218.8z M897.1,245.4c-0.7,9.3-3.3,18.1-9.6,25.4
	c-5.2,6.3-11.6,10.3-19.1,12c-9.2,2-18.3,1.4-26.2-4.5c-2.1-1.6-3.7-3.8-5.8-6.1c-0.1,1-0.1,1.6-0.1,2.2c0,11,0,22,0,33
	c0,3.4-1.3,5.8-4.6,6.2c-4,0.4-8.2,0.2-12.2-0.2c-2.4-0.3-3.9-2.7-3.9-5.2c0-34.4,0-68.7,0-103.1c0-3,2.6-5.6,5.7-5.6
	c2.5,0,4.9,0,7.4,0c3.3,0,5.8,2.6,5.9,5.8c0,1.8,0,3.6,0,5.9c5.4-8,12.6-12.6,21.6-13.5c14-1.4,25.8,2.9,33.9,15
	c4,5.9,6.3,12.5,6.8,19.7C897,236.7,897.4,241,897.1,245.4z M983.5,237.2c-0.1,3.5-3,6.4-6.5,6.4c-15.8,0-31.7,0-47.5,0h-3.1
	c0.7,2.7,1.2,5.1,2,7.4c2.9,7.7,8.8,12.3,16.6,14.1c7.1,1.7,13.9,0.3,20.3-3c2-0.8,3.7-1.5,5.4-2.4c2.1-1,4.1-0.5,5.4,0.9
	c2.3,2.6,4.4,5.4,4.7,9.2c0.2,2.7-1.3,4.4-3.2,5.6c-6.2,3.7-12.9,6.4-20.2,7.5c-10.1,1.6-19.9,0.5-29-3.9
	c-11.7-5.7-19.1-15.2-21.9-27.9c-2.3-10.6-1.6-21.2,3.1-31.2c5.5-11.6,14.7-18.8,27.3-21.5c10.2-2.2,20.2-1.6,29.6,3.6
	c4.9,2.7,8.6,6.6,11.4,11.3C982.1,220.8,983.8,228.8,983.5,237.2z M1078.6,254.7c-2.8,8.5-8.1,15.1-15.2,20.3
	c-7.4,5.4-15.7,7.9-24.9,8.4c-10.7,0.6-20.6-1.6-29.5-7.5c-10.3-6.8-16.5-16.3-18.2-28.7c-1.7-12.1,0.7-23.1,8-32.8
	c3.2-4.4,7.5-7.8,12.2-10.6c9.2-5.6,19.2-7,29.6-6.2c7.4,0.5,14.3,3,20.6,6.9c6.4,4.3,11.7,9.2,14.7,16c1.8,4.1,3.5,8.4,4.4,12.8
	C1081.7,240.5,1080.9,247.7,1078.6,254.7z M1170,258.5c-4.6,12.6-13.1,21.1-26.2,24.2c-9.1,2.1-18.1,1.4-26-4.5
	c-2.2-1.6-4-3.7-6.1-5.7v2.1c0,10.9-0.1,21.8,0.1,32.8c0.1,4.4-3.4,6.5-6.5,6.4c-2.6,0-5.2,0-7.8,0c-4.1,0-6.5-2.4-6.5-6.5
	c0-11.1,0-22.1,0-33.2c0-22.6,0-45.2,0-67.8c0-4.7,2.3-7,6.9-7c2.1,0,4.2,0,6.2,0c3.4,0,5.8,2.5,5.8,5.9c0,1.8,0,3.5,0,4.9
	c2.8-2.5,5.7-5.5,8.9-7.8c4.5-3.2,9.6-4.6,15.2-4.8c6.3-0.2,12.4,0.5,18,3.3c9,4.5,14.6,11.8,17.9,21.1c0.1,0.4,0.3,0.8,0.5,1.3
	c0.8,4.6,2,8.7,2.2,13C1173.1,243.7,1172.7,251.2,1170,258.5z M1212.3,282.3c-6.2,0.5-12.3,0-17.8-3.5c-5.7-3.7-8.5-9.3-8.7-15.6
	c-0.5-18.1-0.4-36.2-0.6-54.3c0-11.9,0-23.4,0-34.8c0-5,2.3-6.8,6.9-6.9c2.8-0.1,5.7-0.1,8.4,0.4c4,0.8,5.4,2.8,5.4,6.9
	c0,6.2,0,12.5,0,18.7c0,20.9,0,41.8,0,62.7c0,2.9,0.5,5.8,3.5,7.3c1,0.5,2.1,0.8,3.2,0.9c2.9,0.5,4.4,2.2,4.4,5.2
	c0,2.5-0.1,5.1,0,7.6C1217.2,279.9,1215.3,282.1,1212.3,282.3z M1297.6,240.9c-1.8,2.3-3.9,2.9-6.4,2.8c-15.5-0.1-31.1,0-46.6,0
	h-3.3c1.6,4.1,2.7,8,4.6,11.4c3.4,6,9.1,9,15.8,10.3c8.2,1.5,15.4-1.1,22.4-4.9c3.6-1.9,6.4-1.5,8.4,1.3c1.3,1.8,2.4,3.8,3.3,5.8
	c1.1,2.5,0.6,5-1.4,6.8c-1.9,1.6-4.2,3-6.5,3.9c-5.2,1.9-10.5,4.1-15.9,5c-8.9,1.4-17.9,0.5-26.3-3.2c-4.5-2-8.6-4.5-12.2-8
	c-6.3-6-10.2-13.3-11.8-21.8c-2.6-13.3-0.7-26,7.5-37.1c5.8-7.9,13.8-12.7,23.5-14.6c7.9-1.6,15.7-1.5,23.3,1
	c7.7,2.5,13.6,7.4,17.5,14.4c3.2,5.6,4.9,11.6,5.3,18.1C1299,235.1,1299.7,238.1,1297.6,240.9z M1377.1,265.4
	c-4.9,9.3-12.6,15.5-23.3,17.5c-9.2,1.7-17.7,0.4-25.4-5.1c-2.7-1.9-7.2-6.9-9.2-10.8c-0.1,1-0.1,1.6-0.1,2.2
	c0,13.6,0,27.2-0.1,40.8c0,1.1-0.5,2.9-1.2,3.2c-1.4,0.5-3.2,0.3-4.7,0c-0.5-0.1-0.9-1.6-0.9-2.4c-0.1-16,0-32,0-48
	c0-19.8,0-39.2,0-58.6c0-2.6,1-3.5,3.6-3.5c2.4,0,3.3,1,3.4,3.5c0,3.6,0,7.2,0,10.8c0,0,0.1,0.1,0.2,0.3c2.3-4.4,5.4-8,9.5-10.8
	c3.9-2.7,8.2-4.3,12.8-5.1c6.3-1.1,12.6-0.5,18.7,1.8c7,2.7,12.3,7.3,16.1,13.8c3.8,6.7,5.4,13.9,6.1,21.6
	C1383.2,246.8,1381.8,256.5,1377.1,265.4z M1464.3,240.4c-12.8,0-25.7,0-38.5,0h-22.5c0.1,12.5,4.3,23.1,14.7,30.2
	c10.3,7,21.7,7.8,33.3,3c3.1-1.8,5.8-3.5,8.5-5.2c1.5-0.9,2.8-1.3,4.2,0.3c1.8,2.1,2,3.7,0.5,5.1c-4.7,4.3-10.4,7-16.6,8.5
	c-10.6,2.6-20.9,1.5-30.6-3.5c-10.7-5.5-17.4-14.3-20.1-26c-1-4.6-1.6-9.5-1.4-14.2c0.5-11.1,3.9-21.3,12.1-29.2
	c6.3-6,13.9-9.3,22.7-10.3c6.9-0.8,13.4,0,19.5,2.9c7.2,3.4,11.9,9.3,14.7,16.6c1.7,4.3,2.8,8.8,2.8,13.6c0,1.4,0.4,2.8,0.4,4.3
	C1468.1,239.5,1467.2,240.4,1464.3,240.4z M1522,205.4c-0.2,0.9-1.7,2.1-2.6,2.2c-10.1,0.3-16.8,5.5-21.3,14.1
	c-3.1,5.8-5.1,11.8-5.4,18.3c-0.4,8.4-0.4,16.8-0.5,25.3c-0.1,4.4,0,8.8,0,13.1c0,2.8-0.4,3.1-3.7,3.1c-3.1,0-3.7-0.5-3.7-3.2
	c0-24.7,0-49.4,0-74c0-2.2,0.6-3.4,3.6-3.5c3.1-0.1,3.9,1.4,3.8,3.5c-0.1,5,0,10,0,15.4c1.3-2.3,2.4-4.4,3.7-6.3
	c4.2-6.3,9.6-11,17.2-12.5c2.2-0.4,4.5-0.4,6.7-0.5C1521.9,201.3,1522.7,202.7,1522,205.4z M1603.3,281.5c-2.6-0.2-5.2-0.2-7.8,0
	c-4.7,0.3-6.9-2.5-6.9-6.9c-0.1-15,0.1-30-0.1-45c-0.1-4.5-0.9-9.1-5.5-11.3c-2.6-1.3-5.8-1.9-8.7-1.7c-4.5,0.3-8.8,1.8-12.5,5
	c-3.6,3-6.1,6.7-7.4,11c-1.1,3.9-1.8,8-1.9,12c-0.3,10.4-0.1,20.8-0.1,31.2c0,3.8-2.1,5.8-5.9,5.9c-2.9,0-5.9-0.3-8.8,0.1
	c-3.4,0.4-5.8-2.7-6.1-5.9c0-0.4,0-0.8,0-1.2c0-33.3,0-66.6,0-99.9c0-5.3,2.5-7.5,7.6-7.5c2.9,0,5.8,0,8.6,0.5
	c3.2,0.5,4.6,2.5,4.6,5.7c0,12.5,0,24.9,0,37.4v2.4c3.5-6,8.2-9.9,14-12.6c6.5-3.1,13.5-3.7,20.5-2.5c2.3,0.4,4.7,1,7,1.6
	c9.4,3.8,13.4,11.2,14.8,20.3c0.5,3.3,0.5,6.7,0.5,10c0,15.2-0.1,30.5,0.1,45.7C1609.4,278.9,1606.8,281.8,1603.3,281.5z
	 M1702.2,267.2c-6.3,8-14.8,13-24.8,15.2c-13.6,2.9-26.5,1.1-38.2-6.6c-9.2-6.1-15.2-14.7-17.4-25.8c-1.5-7.4-1.3-14.7,0.7-22
	c1.8-6.2,4.8-11.3,8.9-15.9c7-7.9,15.9-12.5,26.1-14.1c13.8-2.1,26.8,0.3,38.1,9.3c8,6.4,13,14.6,14.9,24.7
	C1712.9,245,1710.4,256.9,1702.2,267.2z M1799,276c0,3.3-2.2,5.5-5.5,5.5c-2.8,0-5.7,0-8.5,0c-3.8,0.1-5.7-2.3-5.8-5.7
	c-0.1-2.6,0-5.2,0-7.2c-3.2,3.1-6.3,6.8-10.1,9.6c-4.4,3.3-9.6,4.8-15.3,5.3c-6.7,0.6-13-0.3-19-3.3c-5.6-2.9-8.8-7.7-10.7-13.6
	c-1.6-5.1-1.8-10.2-1.8-15.5c0.1-14.5,0.2-28.9-0.1-43.4c-0.1-6,2.4-8.8,8.3-8.4c2,0.2,4,0,6,0c4.2,0,6.5,2.4,6.5,6.6
	c0,13.8,0,27.5,0,41.3c0,2.7,0.3,5.3,0.5,8c2.4,9.2,9.6,10.5,17.3,8.6c9.3-2.4,14.1-9.3,16.3-18.2c0.7-2.7,0.9-5.7,0.9-8.5
	c0.1-10.3,0-20.6,0-30.9c0-4.5,2.3-6.8,6.8-6.8c2.6,0,5.2,0,7.8,0c3.6,0,6.1,2.5,6.1,6.1C1799,228.9,1799,252.5,1799,276z"/>
<path class="st1" d="M198.8,443.7c-10.3,5.7-21.2,9.7-32.9,11.3c-5.1,0.7-10.2,1-15.4,1.7c-1.6,0.2-3.2,0.2-5,0
	c-7.7-0.1-15-1-22.1-2.8c-10-2.5-19.5-6.2-28.4-11.3c-12.2-7.1-22.5-16.3-31.1-27.3c-5.8-7.4-10.3-15.6-13.8-24.4
	c-3.4-8.4-5.8-17.1-6.7-26.2c-0.2-2.2-0.6-4.4-0.9-6.6c0-4.5,0-8.9,0.2-13.7c1-6,1.5-11.7,2.7-17.3c1.8-8.6,4.7-16.8,9.3-24.4
	c0.9,0.8,1.6,1.4,2.3,2.1c4,3.9,8,7.8,11.9,11.9c-3.8,8.7-6.3,17.6-6.8,26.8c-0.6,10.4,0,20.8,3,31.1c3.7,12.7,9.8,24,18.5,33.8
	c8,9.1,17.6,16.2,28.7,21.3c9.7,4.4,19.8,7,30.3,7.7c6.3,0.4,12.7,0,18.9-0.9c8.1-1.2,15.9-3.6,23.3-7c3.5,3.7,6.9,7.3,10.3,10.8
	C196.1,441.5,197.5,442.6,198.8,443.7z"/>
<path class="st0" d="M646.8,342.9c-9.7-2.5-18.9-6.1-27.6-11.1c-6.9-4-13.2-8.7-18.9-14.1h-33.6v28.4c26.8,0,53.5,0,80.1-0.1V342.9z
	"/>
<path class="st0" d="M582.3,155.7v-20.5c-5.2,0-10.4,0-15.5,0c0,6.9,0,13.7,0,20.5H582.3z"/>
<path class="st2" d="M2838.4,308c-2.9,11.1-10.1,13.8-20.5,14.4c-24.8,1.3-40.4,15.8-49.4,38.1c-5.7,13.9-7.7,28.4-7.5,43.5
	c0.3,22.3,0.1,44.6,0.1,66.9c0,12.3-5.9,18.2-17.8,18.2c-7,0-14-0.5-20.8,0.1c-10.5,1-16.7-7.6-16.7-16.6
	c0.2-50.5,0.1-101,0.1-151.5c0-11,0.1-22.1,0-33.1c-0.2-11,8.2-18.4,17.7-17.5c6.1,0.6,12.3,0.1,18.4,0.1c10.8,0,16.8,6,16.8,16.7
	c0,10.6,0,21.1,0,33.3c7.8-19,19.1-33.3,35-43.9c10.7-7.1,22.5-8.3,34.6-7.1c5.4,0.5,8.4,5.1,9.7,10.7
	C2838.4,289.3,2838.4,298.4,2838.4,308z"/>
<path class="st2" d="M996.6,334.3c2.1,11.7,5.2,22.7,5.8,34c1.2,20.1,0.2,40.1-6.9,59.5c-12.3,33.6-34.8,56.2-69.7,64.4
	c-24.2,5.7-48.2,3.8-69.1-11.9c-5.8-4.3-10.6-9.8-16.2-15.1c0,1.7,0,3.6,0,5.5c0,29-0.3,58.1,0.2,87.1c0.2,11.8-9,17.2-17.3,17.1
	c-7-0.1-13.9,0-20.9,0c-10.8-0.1-17.2-6.4-17.2-17.2c0-29.5,0-58.9,0-88.4c0-60.1,0-120.3,0-180.4c0-12.4,6-18.5,18.4-18.5
	c5.5,0,11-0.1,16.6,0c8.9,0.1,15.3,6.6,15.4,15.6c0.1,4.7,0,9.4,0,13c7.6-6.7,15.1-14.6,23.8-20.8c11.9-8.5,25.6-12.3,40.4-12.8
	c16.7-0.6,32.9,1.3,48,8.8c23.8,11.9,38.9,31.4,47.5,56.2C995.8,331.6,996.2,332.7,996.6,334.3 M839.4,388.7
	c2.1,8.5,3.2,17.3,6.4,25.3c7,17.8,19.9,30.2,39.1,33.1c23.6,3.6,43.6-7.7,54-29.5c10-21.1,10-43.1,3.7-65.1
	c-6.4-22.1-25.5-41.3-52.9-39c-19.7,1.6-36.2,13.7-44,32.2C840,359,838.7,373.1,839.4,388.7z"/>
<path class="st2" d="M243.9,460.8c-13.7,16.2-30.7,27-50.9,31.4c-24.5,5.4-48.6,3.6-69.6-12c-5.6-4.2-9.8-10.2-15.4-16.2
	c-0.2,2.6-0.4,4.2-0.4,5.9c0,29.2,0,58.5,0,87.7c0,9.2-3.5,15.4-12.4,16.4c-10.7,1.2-21.8,0.6-32.6-0.6c-6.4-0.7-10.3-7.2-10.3-13.7
	c0-91.4,0-182.9,0-274.3c0-8,7-14.8,15-15c6.5-0.1,13.1-0.1,19.6,0c8.8,0.1,15.5,6.8,15.6,15.5c0.1,4.8,0,9.6,0,15.7
	c14.3-21.3,33.6-33.4,57.3-35.9c37.2-3.8,68.7,7.7,90.3,40c10.6,15.8,16.7,33.4,18.1,52.4c0.8,11.5,1.9,23.2,1.1,34.7
	C267.6,417.7,260.8,441,243.9,460.8 M202.2,337.3c-9.9-16.2-24.1-24.3-43.4-23.9c-22.2,0.4-38.3,13.8-46.1,31.7
	c-8.1,18.8-8.7,38.6-3.8,58.4c6.1,24.4,24.8,46.3,54.5,43.9c19.6-1.5,35.4-13.8,43.7-32.4c6.5-14.7,6.9-30.2,5.9-45.6
	C212.2,358.3,209.3,347.4,202.2,337.3z"/>
<path class="st2" d="M2124,271.3c24.7,9.8,35.2,29.5,38.9,53.7c1.3,8.8,1.3,17.8,1.3,26.7c0.1,40.5-0.2,81,0.2,121.6
	c0.1,8.8-6.9,16.7-16.2,15.9c-6.9-0.6-13.9-0.5-20.9,0c-12.6,0.8-18.2-6.6-18.3-18.5c-0.2-39.9,0.2-79.8-0.3-119.7
	c-0.1-11.9-2.5-24.3-14.5-30.2c-6.9-3.3-15.5-4.9-23.1-4.5c-12.1,0.8-23.4,4.9-33.2,13.2c-9.5,8.1-16.3,17.8-19.6,29.3
	c-2.9,10.3-4.7,21.2-5,31.8c-0.7,27.6-0.2,55.2-0.2,82.9c0,10.1-5.5,15.6-15.6,15.6c-7.8,0-15.6-0.7-23.3,0.2
	c-9,1-15.6-7.2-16.3-15.7c-0.1-1,0-2,0-3.1c0-88.6,0-177.2,0-265.8c0-14,6.7-19.9,20.2-20c7.7-0.1,15.4,0.1,23,1.3
	c8.4,1.3,12.1,6.6,12.1,15.2c0,33.2,0,66.3,0,99.5c0,1.6,0,3.2,0,6.3c9.4-15.9,21.9-26.3,37.2-33.4c17.4-8.1,35.8-9.9,54.7-6.6
	C2111.3,267.9,2117.5,269.6,2124,271.3z"/>
<path class="st2" d="M2199.5,346.3c4.6-16.1,12.6-29.6,23.3-41.8c18.6-21,42.2-33.3,69.4-37.4c36.8-5.6,71.4,0.8,101.4,24.6
	c21.4,17,34.5,38.8,39.6,65.6c6.6,34.6-0.1,66.2-21.9,93.7c-16.9,21.3-39.5,34.6-66.1,40.4c-36.1,7.8-70.6,2.9-101.6-17.5
	c-24.6-16.2-40.5-39.2-46.3-68.7C2193.5,385.5,2193.9,366.1,2199.5,346.3 M2256.4,408.3c3.7,5.9,6.7,12.4,11.3,17.5
	c16.2,17.9,36.5,24.8,60.2,20.1c13.4-2.6,25.5-8.9,34.3-19.4c14.6-17.5,20-37.9,15.7-60.5c-2.3-11.9-7-22.8-15.4-31.8
	c-15-16-33.1-23.7-55.3-20.9c-16.6,2.1-30.1,9.2-40.6,22.3C2249,357.6,2247.7,381.7,2256.4,408.3z"/>
<path class="st2" d="M706.4,284.3c16.6,11.2,30.7,24.2,38.7,42.4c4.8,11,9.4,22.3,11.7,34c3.8,19.2,1.6,38.3-4.5,57
	c-7.4,22.6-21.5,40.2-40.4,54c-19.6,14.3-41.9,21-66.3,22.5c-28.5,1.7-54.7-4.3-78.4-19.9c-27.5-18.1-43.8-43.4-48.4-76.3
	c-4.6-32.1,2-61.4,21.2-87.4c8.6-11.6,19.9-20.6,32.4-28.2c24.4-14.8,51-18.6,78.7-16.6C670.7,267.2,689.1,273.7,706.4,284.3
	 M689.5,420.7c14.2-22.1,16.4-45.4,6.4-69.6c-9.4-22.7-34.4-41.4-65.7-37.7c-24.3,2.9-41.6,15.9-50.6,37.7
	c-10.1,24.6-8.4,49.3,8,71.6c14.4,19.7,42.2,29,65.3,22.7C667.7,441.4,679.9,433.8,689.5,420.7z"/>
<path class="st2" d="M1334.6,381.2c-4.4,5.9-10.1,7.3-16.8,7.2c-41.3-0.2-82.7-0.1-124-0.1c-2.2,0-4.5,0-8.7,0
	c4.3,10.9,7.1,21.3,12.2,30.4c9.1,16,24.2,24,42.1,27.3c21.7,4,40.9-2.9,59.5-13.1c9.5-5.2,17-3.9,22.4,3.5
	c3.5,4.8,6.5,10.1,8.9,15.5c3,6.6,1.7,13.4-3.8,18c-5.1,4.3-11.1,8-17.3,10.3c-13.9,5.1-27.9,11-42.4,13.2
	c-23.8,3.6-47.6,1.3-70-8.6c-11.9-5.3-22.9-12.1-32.4-21.2c-16.6-16-27.2-35.4-31.5-58c-6.8-35.5-1.8-69.1,19.8-98.8
	c15.4-21.1,36.7-33.8,62.6-38.9c20.9-4.2,41.7-3.9,62,2.7c20.4,6.6,36.1,19.8,46.7,38.4c8.5,14.9,13.1,31,14.1,48.3
	C1338.7,365.6,1340.6,373.6,1334.6,381.2 M1263.6,354c6.7,0,13.4,0,20.2,0c-2.7-31-20.6-48.4-47.5-46.4
	c-28.4,2.1-45.6,25.7-46.3,46.4C1214.2,354,1238.3,354,1263.6,354z"/>
<path class="st2" d="M451.3,437.5c4.9-2.1,9.5-4.1,13.9-6.2c5.5-2.7,11-1.4,14.4,2.4c6.2,6.9,11.8,14.4,12.4,24.5
	c0.5,7.3-3.3,11.7-8.6,14.9c-16.6,10-34.2,17.1-53.7,20c-26.9,4.1-52.9,1.3-77.1-10.5c-31-15.1-50.9-40.4-58.3-74.2
	c-6.1-28.2-4.4-56.4,8.2-82.9c14.7-30.8,39.2-50.1,72.5-57.1c27.1-5.8,53.8-4.2,78.8,9.6c13,7.2,23,17.5,30.3,30.2
	c11.4,19.5,15.9,40.7,15,63.2c-0.4,9.3-8,17.1-17.4,17.1c-42.1,0-84.3,0-126.4,0c-2.2,0-4.4,0-8.2,0c1.9,7.1,3.1,13.6,5.4,19.8
	c7.8,20.5,23.4,32.6,44.1,37.5C415.6,450.1,433.8,446.5,451.3,437.5 M350.7,349.7c-0.4,1.3-0.8,2.6-1.2,4c31.6,0,62.8,0,95,0
	c-0.6-4.5-0.7-8.7-1.7-12.6c-8-30.1-36.3-40.5-61.8-29.1C364.5,319.2,356,332.5,350.7,349.7z"/>
<path class="st2" d="M2521.8,419.6c6.3,23.9,25.4,27.6,45.9,22.3c24.7-6.4,37.4-24.8,43.4-48.4c1.9-7.3,2.4-15.1,2.5-22.7
	c0.3-27.4,0.1-54.8,0.1-82.2c0-12.1,6.1-18.1,18.1-18.1c7,0,13.9,0,20.9,0c9.5,0,16.3,6.6,16.3,16.1c0,62.6,0,125.2,0,187.8
	c0,8.8-5.9,14.6-14.7,14.7c-7.6,0-15.1-0.1-22.7,0c-10.2,0.2-15.1-6.1-15.4-15.2c-0.2-6.9,0-13.9,0-19.2c-8.4,8.1-16.7,18-26.8,25.5
	c-11.7,8.7-25.6,12.8-40.6,14.1c-17.8,1.5-34.6-0.7-50.4-8.9c-14.8-7.6-23.4-20.4-28.4-36.1c-4.4-13.5-4.9-27.2-4.8-41.1
	c0.2-38.5,0.6-76.9-0.2-115.4c-0.3-16,6.4-23.5,22.2-22.2c5.3,0.4,10.6,0,15.9,0.1c11.1,0.1,17.4,6.4,17.4,17.6
	c0,36.6-0.1,73.2,0.1,109.8C2520.5,405,2521.2,412.1,2521.8,419.6z"/>
<path class="st2" d="M1035.9,295c0-31.1,0-61.6,0-92c0-13.3,6.2-18.1,18.4-18.4c7.5-0.2,15.1-0.4,22.4,1
	c10.8,2.1,14.4,7.3,14.4,18.2c0.1,16.6,0,33.1,0,49.7c0,55.6-0.1,111.3,0.1,166.9c0,7.7,1.2,15.4,9.2,19.4c2.6,1.3,5.5,2,8.4,2.5
	c7.7,1.3,11.8,5.8,11.8,13.8c0,6.7-0.2,13.5,0.1,20.2c0.3,8.3-4.6,14.2-12.5,14.8c-16.5,1.3-32.8,0.1-47.5-9.4
	c-15.2-9.9-22.7-24.7-23.2-41.6C1036,392,1036.3,343.8,1035.9,295z"/>
<path class="st2" d="M1373.5,438.7c0-52.2,0-103.7,0-155.2c0-6.9,2.6-9.4,9.5-9.3c6.5,0.1,8.9,2.6,8.9,9.3c0,9.6,0,19.2,0.1,28.8
	c0,0.1,0.2,0.3,0.5,0.8c6.2-11.7,14.4-21.3,25.3-28.8c10.4-7.2,21.8-11.5,33.9-13.6c16.9-3,33.5-1.3,49.7,4.8
	c18.7,7.1,32.8,19.5,42.8,36.8c10.2,17.8,14.5,37,16.2,57.4c2.3,27.1-1.4,52.9-14,76.7c-13.1,24.8-33.5,41.3-62,46.6
	c-24.4,4.5-47.1,1.2-67.7-13.5c-7.2-5.2-19.1-18.5-24.4-28.7c-0.2,2.6-0.4,4.2-0.4,5.8c0,36.2,0.1,72.4-0.2,108.6
	c0,3-1.3,7.8-3.2,8.5c-3.8,1.3-8.5,0.8-12.6-0.1c-1.2-0.3-2.4-4.2-2.4-6.5C1373.5,524.4,1373.5,481.9,1373.5,438.7 M1522.1,316.6
	c-5.8-7.9-12.6-14.4-21.3-19.2c-12.7-7.2-26.1-9.6-40.5-8.5c-19.9,1.5-36.1,10.2-48.5,25.4c-13.4,16.3-18,36.2-19.7,56.6
	c-1.2,14.3-0.4,28.7,3.6,42.6c5.7,19.7,14.5,37.7,31.6,50.1c16.7,12.2,35.6,15,55.4,10.1c17.8-4.4,31.4-14.9,41.6-30.2
	c7.7-11.5,12.3-24.1,14.6-37.4c2.8-16.6,2.6-33.4-0.4-50.1C1535.9,341.9,1531,328.9,1522.1,316.6z"/>
<path class="st2" d="M1744.2,468.2c7.7-4.6,14.9-9.2,22.1-13.8c3.9-2.5,7.6-3.5,11.2,0.8c4.7,5.7,5.4,9.9,1.3,13.6
	c-12.6,11.5-27.7,18.6-44.1,22.6c-28.1,6.9-55.6,4-81.4-9.3c-28.5-14.6-46.4-38-53.5-69c-2.8-12.2-4.2-25.2-3.6-37.7
	c1.3-29.5,10.3-56.6,32.3-77.6c16.8-16,37.1-24.6,60.3-27.4c18.3-2.2,35.6,0.1,52,7.7c19.3,9,31.7,24.6,39.2,44.2
	c4.5,11.6,7.4,23.5,7.5,36.1c0,3.8,1,7.6,1.1,11.4c0.1,7.7-2.3,10.1-10,10.1c-34.2,0-68.3,0-102.5,0c-20,0-40,0-59.9,0
	c0.3,33.2,11.3,61.5,39,80.4C1682.6,478.8,1712.8,480.8,1744.2,468.2 M1719.2,361.4c16.1,0,32.2,0,49.3,0c-1.2-7.3-2-13.8-3.3-20.3
	c-3.4-16.5-11.4-30.7-24.9-40.5c-25.1-18.2-52.2-16.6-78.7-3.8c-19.7,9.5-32.2,26.4-39.6,46.8c-2,5.6-3,11.6-4.5,17.9
	C1651.7,361.4,1684.8,361.4,1719.2,361.4z"/>
<path class="st2" d="M1926.2,273.7c5.4,1.9,7.6,5.8,5.7,12.9c-0.7,2.4-4.5,5.6-6.9,5.7c-26.7,0.9-44.6,14.7-56.7,37.6
	c-8.1,15.3-13.7,31.5-14.5,48.7c-1,22.4-1,44.8-1.3,67.2c-0.2,11.7,0,23.3,0,35c0,7.4-1.1,8.3-9.8,8.2c-8.2,0-9.8-1.3-9.8-8.5
	c0-65.6,0-131.3-0.1-196.9c0-5.8,1.7-9.1,9.6-9.3c8.2-0.2,10.3,3.7,10.2,9.4c-0.2,13.3-0.1,26.6-0.1,41c3.6-6.2,6.3-11.7,9.7-16.7
	c11.2-16.7,25.6-29.2,45.8-33.3C1913.7,273.5,1919.9,273.8,1926.2,273.7z"/>
<path class="st0" d="M232.3,404.4c-1.1,1-2.1,1.8-3.2,2.8c-1.3,1.1-2.5,2.1-3.7,3.3c-1.8,1.4-3.5,2.6-5.4,3.9
	c-3.4,1.9-6.7,3.7-10.1,5.5c-7.5,3.7-15.3,6.1-23.4,7.2c-6.2,0.9-12.6,1.3-18.9,0.9c-10.5-0.6-20.6-3.3-30.3-7.7
	c-11.1-5.1-20.7-12.2-28.7-21.3c-8.7-9.8-14.8-21.1-18.5-33.8c-3-10.3-3.6-20.6-3-31.1c0.6-9.2,3.1-18.1,7-26.9
	c0.9-1.9,1.6-3.6,2.5-5.5c0.7-1.4,1.4-2.6,2.2-3.9c1-1.4,1.9-2.8,2.9-4.3c1.5-2,2.9-3.9,4.3-6c0.7-0.8,1.3-1.5,2-2.2
	c1-1.1,1.8-2.1,2.8-3.2c1.9-1.8,3.6-3.4,5.5-5.2c1.7-1.4,3.3-2.8,5.1-4.2c0.7-0.5,1.3-0.9,1.9-1.3c2-1.4,4-2.8,6.1-4.2
	c3.7-1.8,7.2-3.6,10.9-5.5c3.8-1.2,7.3-2.5,11.1-3.7c3.3-0.7,6.4-1.3,9.7-1.9c2.7-0.3,5.2-0.5,7.9-0.9c3.9,0.1,7.6,0.2,11.3,0.4
	c8.5,0.9,16.7,2.6,24.8,6c20.6,8.5,35.8,22.5,45.7,42.5c2.1,5.5,4.1,10.9,6.2,16.5c0.6,3.1,1.2,6.1,1.8,9.2
	c0.2,3.9,0.3,7.6,0.5,11.5c-0.5,5.6-0.9,11-1.4,16.6c-1.4,5-2.8,9.8-4.2,14.8c-0.9,2.2-1.8,4.2-2.7,6.1c-0.9,1.8-1.8,3.5-2.8,5.4
	c-2,3.1-4,6.1-6,9.2c-1.5,1.9-3,3.6-4.5,5.5C235.7,401,234,402.6,232.3,404.4 M231.7,329.2c0.5-0.9,1-1.7,1.8-2.7
	c0.7-1.5,1.4-3,2.4-4.7c0.2-2.4,0.3-4.8,0.5-7.6c0-0.6,0.1-1.2,0-1.8c-1.9-9.4-9.2-16-19.3-16.7c-2.2,0.3-4.3,0.7-6.9,1
	c-1.4,0.7-2.9,1.4-4.6,2.3c-0.8,0.7-1.7,1.5-2.8,2.3c-0.8,0.9-1.6,1.8-2.5,3c-0.9,1.9-1.8,3.8-3.1,5.9c-0.1,3.1-0.8,6.3-0.3,9.3
	c1.2,7.1,5.3,12.2,12,14.9c4.4,1.8,9,2.3,14,0.6c1.9-1.1,3.8-2.1,6-3.3C229.7,330.8,230.6,330.1,231.7,329.2 M108.6,310.3
	c-0.3,1.5-0.8,3.1-0.9,4.6c-0.2,6.8,2.3,12.5,7.6,16.6c5.4,4.2,11.5,5.5,18.6,3.3c3-1.1,6-2.3,8.3-5.1c2.3-2.5,4.3-5.2,5.1-8.8
	c0.2-1.4,0.5-2.8,0.5-4.3c0-7.2-2.5-13.4-8.7-17.4c-4.9-3.2-10.3-4.7-16.6-2.7c-3.5,0.8-6.4,2.5-9.2,5.2
	C111.1,304.1,109.3,306.7,108.6,310.3z"/>
<path class="st0" d="M1111.3,243.6c-0.3-5.6,0.2-10.9,2.3-16c2.9-7,9.1-11.5,16.5-12.1c10.3-0.8,17.5,6.4,19.9,14.7
	c2.4,8.3,2.4,16.6-1.4,24.5c-3.9,8.2-11.4,12.5-20.3,11.1c-7.2-1.1-12.1-5.8-14.7-12.4C1112.5,250.3,1112.1,247,1111.3,243.6z"/>
<path class="st0" d="M871.9,224.6c2.6,3.7,3.7,7.7,3.9,11.9c0.4,5.8,0.3,11.6-2.2,17.1c-3.1,7-9.1,11.6-16.4,12.2
	c-11.2,0.9-18.2-7.3-20.5-16.5c-1.9-7.4-1.6-14.9,1.4-21.9c2.9-6.7,9-11.8,17.3-11.9C862.8,215.3,868.1,218.4,871.9,224.6z"/>
<path class="st0" d="M1643.9,251c-3.3-9.8-2.8-18.9,3.9-27.1c4-4.9,9-7.6,15.3-8.4c8.4-1,15.1,1.9,20.8,7.9
	c3.2,3.4,4.9,7.5,5.8,11.9c1.6,8.5-0.4,16.2-5.9,22.7c-3.3,3.9-7.8,6.3-12.9,7.3c-8.9,1.7-16.6-0.8-22.6-7.6
	C1646.5,255.8,1645.4,253.4,1643.9,251z"/>
<path class="st0" d="M1054.9,255.9c-3.5,4.8-8.1,7.6-13.7,9.1c-8.7,2.4-19.1-1.1-24.5-8.5c-6.2-8.4-6.8-17.7-3-26.9
	c3.4-8.2,9.9-13.1,19-14.2c11.8-1.4,21.2,5.6,24.7,14.2C1061.2,238.7,1060.3,247.5,1054.9,255.9z"/>
<path class="st0" d="M1270.6,230.7c-9.3,0-18.4,0-27.4,0c0.2-7.8,6.7-16.6,17.4-17.4c10.1-0.7,16.8,5.8,17.9,17.4
	C1275.8,230.7,1273.3,230.7,1270.6,230.7z"/>
<path class="st0" d="M927.6,228.9c2-6.3,5.2-11.3,11.3-14c9.6-4.3,20.3-0.4,23.2,11c0.4,1.5,0.4,3.1,0.6,4.7c-12.1,0-23.8,0-35.7,0
	C927.4,230.1,927.5,229.6,927.6,228.9z"/>
<path class="st0" d="M1368.1,216.8c3.2,4.5,5,9.4,6,14.7c1.2,6.3,1.2,12.6,0.2,18.8c-0.8,5-2.6,9.7-5.5,14
	c-3.9,5.8-8.9,9.7-15.6,11.4c-7.4,1.8-14.5,0.8-20.8-3.8c-6.4-4.7-9.7-11.4-11.9-18.8c-1.5-5.2-1.8-10.7-1.4-16
	c0.6-7.7,2.4-15.1,7.4-21.3c4.7-5.7,10.8-9,18.2-9.5c5.4-0.4,10.5,0.5,15.2,3.2C1363.2,211.3,1365.8,213.7,1368.1,216.8z"/>
<path class="st0" d="M1441.8,233.5c-12.7,0-25.1,0-38,0c0.6-2.4,0.9-4.6,1.7-6.7c2.8-7.7,7.5-14,14.9-17.6c10-4.8,20.2-5.4,29.6,1.4
	c5.1,3.7,8.1,9,9.4,15.2c0.5,2.4,0.8,4.9,1.3,7.6C1454.1,233.5,1448.1,233.5,1441.8,233.5z"/>
<path class="st3" d="M196.7,270.3c0.9,0.7,1.5,1.6,2.3,2.3c8.6,8.6,17.2,17.1,25.9,25.8c-0.7,0.8-1.5,1.5-2.5,2.3c-1.1-1-2-2-2.9-3
	c-7.7-7.7-15.4-15.4-23.1-23.1c-0.6-0.6-1.3-1.1-2.1-1.6C195,272.1,195.8,271.2,196.7,270.3z"/>
</svg>
