<?xml version="1.0" encoding="utf-8"?>
<!-- Generator: Adobe Illustrator 26.2.1, SVG Export Plug-In . SVG Version: 6.00 Build 0)  -->
<svg version="1.1" id="Layer_1" xmlns="http://www.w3.org/2000/svg" xmlns:xlink="http://www.w3.org/1999/xlink" x="0px" y="0px"
	 viewBox="0 0 15401.7 6148.2" style="enable-background:new 0 0 15401.7 6148.2;" xml:space="preserve">
<style type="text/css">
	.st0{fill:#6FDA44;}
	.st1{fill:#FFFFFF;}
</style>
<path class="st0" d="M4211.2,4046.3c-250.4,0-485.1-106-698.3-278.6l51.9-243.7l2.3-9c46.2-259.4,192.9-694.9,644.1-694.9
	c338.4,0,613.7,275.3,613.7,613.7C4823.7,3771.1,4548.5,4046.3,4211.2,4046.3L4211.2,4046.3z M4211.2,2198.6
	c-576.5,0-1023.2,374.5-1204.8,990.5c-277.5-416.3-487.4-916-610.3-1336.8h-620.4v1614.3c0,318.1-259.5,577.6-577.6,577.6
	s-577.6-259.4-577.6-577.6V1852.2H0v1614.3c-2.3,661.1,535.8,1203.7,1196.9,1203.7c661.1,0,1199.2-542.6,1199.2-1203.7v-270.7
	c120.7,251.5,268.5,505.4,447.8,731l-380.2,1786.8h635.1l275.2-1296.2c241.4,154.5,518.9,251.6,837.1,251.6
	c680.2,0,1234.1-557.3,1234.1-1237.5C5445.3,2752.4,4891.4,2198.6,4211.2,2198.6L4211.2,2198.6z"/>
<path class="st1" d="M7339.3,2268.5l400.5,1614.3l441.1-1614.3h525.7l-678,2332.9h-525.7l-416.2-1624.4l-415.2,1623.3h-525.7
	l-678-2332.8h525.7l441.1,1614.3l400.5-1614.3h504.2L7339.3,2268.5L7339.3,2268.5z M9964.4,2198.6
	c-682.5,0-1235.2,553.9-1235.2,1235.2c0,682.5,553.9,1235.3,1235.2,1235.3c682.5,0,1236.4-552.8,1236.4-1235.3
	C11200.8,2751.3,10646.9,2198.6,9964.4,2198.6L9964.4,2198.6z M9964.4,4161.4c-401.6,0-726.5-324.9-726.5-726.5
	c0-401.6,326-726.5,726.5-726.5c401.6,0,726.5,324.9,726.5,726.5C10690.9,3835.4,10366,4161.4,9964.4,4161.4z M12702.2,2790.8
	c-353.1,0-638.5,286.5-638.5,638.5v1170.9h-529.1V2268.5h529.1v358.7c0,0,225.6-359.9,689.2-359.9h162.4v523.4L12702.2,2790.8
	L12702.2,2790.8z M14477.9,3343.6c375.6-212.1,630.6-614.8,630.6-1076.2h-529.1c0,389.2-315.8,705-705,705h-71.1V1142.7h-529v3457.5
	h529V3501.5h63.2c51.9,0,119.6,33.9,150,75.6l751.3,1023.2h634L14477.9,3343.6L14477.9,3343.6z"/>
</svg>
